<svg width="1024" height="1024" viewBox="0 0 1024 1024" fill="none" xmlns="http://www.w3.org/2000/svg">
<rect width="1024" height="1024" fill="white"/>
<path d="M596.482 402.274C586.257 399.485 578.822 393.676 574.174 384.846C569.527 375.551 568.597 366.024 571.386 356.264C574.639 346.505 580.913 339.301 590.208 334.654C599.503 330.006 609.03 329.309 618.789 332.562L675.953 353.476C677.347 353.94 678.509 353.708 679.438 352.779C680.832 351.849 681.53 350.687 681.53 349.293L680.135 288.644C679.671 277.955 682.924 269.125 689.895 262.154C696.866 254.718 705.464 251 715.688 251C726.377 251 735.207 254.718 742.178 262.154C749.15 269.125 752.635 277.955 752.635 288.644L751.241 349.293C751.241 350.687 751.706 351.849 752.635 352.779C754.029 353.708 755.424 353.94 756.818 353.476L813.981 332.562C823.276 329.309 832.571 330.006 841.866 334.654C851.161 339.301 857.202 346.505 859.991 356.264C863.244 366.024 862.547 375.551 857.899 384.846C853.252 393.676 846.048 399.485 836.289 402.274L778.428 419.702C777.034 420.166 776.105 421.096 775.64 422.49C775.175 423.884 775.408 425.046 776.337 425.976L813.284 474.076C819.326 481.977 821.649 491.039 820.255 501.264C818.861 511.488 813.981 519.621 805.616 525.663C797.25 531.704 787.956 534.028 777.731 532.634C767.507 530.775 759.606 525.663 754.029 517.297L719.871 467.105C718.941 466.176 717.547 465.711 715.688 465.711C714.294 465.711 713.364 466.176 712.9 467.105L678.741 517.297C672.699 525.663 664.566 530.775 654.342 532.634C644.118 534.028 634.823 531.704 626.458 525.663C618.557 519.621 613.677 511.488 611.818 501.264C610.424 491.039 612.98 481.977 619.486 474.076L656.433 425.976C656.898 425.046 656.898 423.884 656.433 422.49C655.969 421.096 655.272 420.166 654.342 419.702L596.482 402.274Z" fill="black"/>
<path d="M258.202 344.413V495.687C258.202 499.405 260.293 501.264 264.476 501.264H299.331C382.056 501.264 423.418 471.753 423.418 412.73C423.418 360.214 385.076 333.957 308.394 333.957C294.452 333.957 279.812 335.118 264.476 337.442C260.293 338.372 258.202 340.695 258.202 344.413ZM201.735 773.835C191.046 773.835 181.752 769.885 173.851 761.984C165.95 754.084 162 744.789 162 734.1V308.163C162 297.01 165.718 287.018 173.154 278.187C180.59 269.357 189.885 264.478 201.038 263.548C240.541 259.83 278.65 257.971 315.365 257.971C383.682 257.971 434.804 270.752 468.73 296.312C502.656 321.408 519.619 356.961 519.619 402.971C519.619 435.967 510.557 465.014 492.432 490.11C474.772 515.206 450.837 532.866 420.629 543.091C420.164 543.091 419.932 543.323 419.932 543.788C419.932 544.717 420.164 545.182 420.629 545.182C442.937 559.124 461.991 586.544 477.792 627.441L519.619 736.888C522.873 745.718 521.711 754.084 516.134 761.984C511.022 769.885 503.818 773.835 494.523 773.835H472.913C460.829 773.835 449.908 770.582 440.148 764.076C430.389 757.104 423.418 748.042 419.235 736.888L380.197 629.533C371.831 607.225 362.304 592.586 351.615 585.615C340.926 578.643 322.569 575.158 296.543 575.158H264.476C260.293 575.158 258.202 577.249 258.202 581.432V734.1C258.202 744.789 254.251 754.084 246.351 761.984C238.915 769.885 229.852 773.835 219.163 773.835H201.735Z" fill="black"/>
</svg>
